<?xml version="1.0" encoding="utf-8"?>
<!-- Uploaded to: SVG Repo, www.svgrepo.com, Generator: SVG Repo Mixer Tools -->
<svg width="24" height="24" viewBox="0 0 24 24" xmlns="http://www.w3.org/2000/svg">
  <!-- Brain icon representing AI -->
  <path fill="#7ED2FF" d="M12 2C8.13 2 5 5.13 5 9c0 1.57.56 3.02 1.5 4.14V16a.5.5 0 0 0 .5.5h9a.5.5 0 0 0 .5-.5v-2.86c.94-1.12 1.5-2.57 1.5-4.14 0-3.87-3.13-7-7-7z"/>
  
  <!-- Code brackets -->
  <path fill="#FFFFFF" d="M9.5 10.5L7 13l2.5 2.5M14.5 10.5L17 13l-2.5 2.5"/>
  <path fill="#FFFFFF" d="M13 10l-2 6"/>
  
  <!-- Graduation cap for tutoring -->
  <path fill="#FFDD57" d="M12 2L4 6l8 4 8-4z"/>
  <path fill="#FFDD57" d="M20 6v5c0 3.5-3.58 7-8 7s-8-3.5-8-7V6"/>
  <path fill="#FFDD57" d="M12 15v3"/>
  <path fill="#FFDD57" d="M10 18h4"/>
</svg>